<?xml version="1.0" standalone="no"?>
<!DOCTYPE svg PUBLIC "-//W3C//DTD SVG 20010904//EN"
 "http://www.w3.org/TR/2001/REC-SVG-20010904/DTD/svg10.dtd">
<svg version="1.0" xmlns="http://www.w3.org/2000/svg"
 width="152.000000pt" height="152.000000pt" viewBox="0 0 152.000000 152.000000"
 preserveAspectRatio="xMidYMid meet">
<metadata>
Created by potrace 1.14, written by Peter Selinger 2001-2017
</metadata>
<g transform="translate(0.000000,152.000000) scale(0.100000,-0.100000)"
fill="#000000" stroke="none">
<path d="M182 934 l3 -475 291 -180 291 -179 134 83 c74 46 205 127 292 181
l157 97 0 475 0 474 -585 0 -585 0 2 -476z m1068 -22 l0 -398 -238 -147 c-132
-81 -242 -147 -247 -147 -4 0 -115 66 -246 147 l-239 148 0 397 0 398 485 0
485 0 0 -398z"/>
<path d="M550 810 l0 -290 50 0 50 0 0 115 0 115 45 0 45 0 0 50 0 50 -45 0
-45 0 0 75 0 75 45 0 45 0 0 50 0 50 -95 0 -95 0 0 -290z"/>
<path d="M790 810 l0 -290 95 0 95 0 0 50 0 50 -45 0 -45 0 0 240 0 240 -50 0
-50 0 0 -290z"/>
</g>
</svg>
